<svg xmlns="http://www.w3.org/2000/svg" xmlns:xlink="http://www.w3.org/1999/xlink" width="500" zoomAndPan="magnify" viewBox="0 0 375 374.999991" height="500" preserveAspectRatio="xMidYMid meet" version="1.0"><defs><clipPath id="b1a21877c0"><path d="M 8.828125 8.828125 L 365.828125 8.828125 L 365.828125 365.828125 L 8.828125 365.828125 Z M 8.828125 8.828125 " clip-rule="nonzero"/></clipPath><clipPath id="00efd462dd"><path d="M 92.371094 92.371094 L 282.871094 92.371094 L 282.871094 282.871094 L 92.371094 282.871094 Z M 92.371094 92.371094 " clip-rule="nonzero"/></clipPath></defs><g clip-path="url(#b1a21877c0)"><path fill="#9b4819" d="M 187.496094 8.828125 C 88.941406 8.828125 8.828125 89.015625 8.828125 187.496094 C 8.828125 286.050781 88.941406 366.167969 187.496094 366.167969 C 285.980469 366.167969 366.167969 286.050781 366.167969 187.496094 C 366.167969 89.015625 285.980469 8.828125 187.496094 8.828125 Z M 187.496094 352.230469 C 96.660156 352.230469 22.761719 278.332031 22.761719 187.496094 C 22.761719 96.660156 96.660156 22.761719 187.496094 22.761719 C 278.332031 22.761719 352.230469 96.660156 352.230469 187.496094 C 352.230469 278.332031 278.332031 352.230469 187.496094 352.230469 Z M 187.496094 352.230469 " fill-opacity="1" fill-rule="nonzero"/></g><path fill="#9b4819" d="M 187.496094 32.054688 C 101.808594 32.054688 32.054688 101.808594 32.054688 187.496094 C 32.054688 273.1875 101.808594 342.941406 187.496094 342.941406 C 273.1875 342.941406 342.941406 273.1875 342.941406 187.496094 C 342.941406 101.808594 273.1875 32.054688 187.496094 32.054688 Z M 187.496094 32.054688 " fill-opacity="1" fill-rule="nonzero"/><g clip-path="url(#00efd462dd)"><path fill="#f4f1e8" d="M 265.378906 180.558594 L 254.472656 169.648438 L 236.667969 151.84375 L 262.058594 151.84375 L 262.058594 127.523438 L 197.050781 127.523438 L 215.007812 109.570312 L 197.808594 92.371094 L 180.554688 109.621094 L 169.648438 120.53125 L 151.84375 138.332031 L 151.84375 112.941406 L 127.523438 112.945312 L 127.523438 177.945312 L 109.566406 159.992188 L 92.371094 177.191406 L 109.621094 194.445312 L 138.332031 223.15625 L 112.941406 223.15625 L 112.945312 247.476562 L 177.945312 247.476562 L 159.992188 265.429688 L 177.191406 282.628906 L 194.445312 265.378906 L 205.351562 254.472656 L 223.152344 236.667969 L 223.152344 262.058594 L 247.472656 262.058594 L 247.472656 222.230469 L 247.476562 197.050781 L 265.429688 215.007812 L 282.625 197.808594 Z M 223.152344 202.269531 L 202.269531 223.15625 L 172.726562 223.15625 L 151.84375 202.269531 L 151.84375 172.726562 L 172.726562 151.84375 L 202.269531 151.84375 L 223.152344 172.726562 Z M 223.152344 202.269531 " fill-opacity="1" fill-rule="nonzero"/></g></svg>