<svg xmlns="http://www.w3.org/2000/svg" xmlns:xlink="http://www.w3.org/1999/xlink" width="500" zoomAndPan="magnify" viewBox="0 0 375 374.999991" height="500" preserveAspectRatio="xMidYMid meet" version="1.0"><path fill="#9b4819" d="M 187.5 0 C 84.074219 0 0 84.148438 0 187.5 C 0 290.925781 84.074219 375 187.5 375 C 290.851562 375 375 290.925781 375 187.5 C 375 84.148438 290.851562 0 187.5 0 Z M 187.5 360.375 C 92.175781 360.375 14.625 282.824219 14.625 187.5 C 14.625 92.175781 92.175781 14.625 187.5 14.625 C 282.824219 14.625 360.375 92.175781 360.375 187.5 C 360.375 282.824219 282.824219 360.375 187.5 360.375 Z M 187.5 360.375 " fill-opacity="1" fill-rule="nonzero"/><path fill="#9b4819" d="M 187.5 24.375 C 97.574219 24.375 24.375 97.574219 24.375 187.5 C 24.375 277.425781 97.574219 350.625 187.5 350.625 C 277.425781 350.625 350.625 277.425781 350.625 187.5 C 350.625 97.574219 277.425781 24.375 187.5 24.375 Z M 187.5 24.375 " fill-opacity="1" fill-rule="nonzero"/></svg>