<svg xmlns="http://www.w3.org/2000/svg" xmlns:xlink="http://www.w3.org/1999/xlink" width="500" zoomAndPan="magnify" viewBox="0 0 375 374.999991" height="500" preserveAspectRatio="xMidYMid meet" version="1.0"><defs><g/></defs><path fill="#9b4819" d="M 187.488281 0 C 84.070312 0 0 84.144531 0 187.488281 C 0 290.90625 84.070312 374.976562 187.488281 374.976562 C 290.832031 374.976562 374.976562 290.90625 374.976562 187.488281 C 374.976562 84.144531 290.832031 0 187.488281 0 Z M 187.488281 360.351562 C 92.167969 360.351562 14.625 282.808594 14.625 187.488281 C 14.625 92.167969 92.167969 14.625 187.488281 14.625 C 282.808594 14.625 360.351562 92.167969 360.351562 187.488281 C 360.351562 282.808594 282.808594 360.351562 187.488281 360.351562 Z M 187.488281 360.351562 " fill-opacity="1" fill-rule="nonzero"/><path fill="#9b4819" d="M 187.488281 24.375 C 97.570312 24.375 24.375 97.570312 24.375 187.488281 C 24.375 277.40625 97.570312 350.601562 187.488281 350.601562 C 277.40625 350.601562 350.601562 277.40625 350.601562 187.488281 C 350.601562 97.570312 277.40625 24.375 187.488281 24.375 Z M 187.488281 24.375 " fill-opacity="1" fill-rule="nonzero"/><g fill="#f4f1e8" fill-opacity="1"><g transform="translate(87.264836, 225.72405)"><g><path d="M 88.359375 -42.21875 C 88.222656 -40.28125 88.15625 -37.453125 88.15625 -33.734375 C 88.082031 -27.660156 87.734375 -22.929688 87.109375 -19.546875 C 86.492188 -16.171875 84.890625 -13.34375 82.296875 -11.0625 C 79.710938 -8.789062 75.660156 -7.65625 70.140625 -7.65625 C 68.898438 -5.445312 68.28125 -3.550781 68.28125 -1.96875 C 68.28125 -0.65625 68.523438 0 69.015625 0 L 120.53125 0 C 120.945312 0 121.222656 -0.378906 121.359375 -1.140625 C 121.492188 -1.898438 121.5625 -2.554688 121.5625 -3.109375 C 121.5625 -5.867188 121.21875 -7.382812 120.53125 -7.65625 C 114.8125 -7.65625 110.5 -8.550781 107.59375 -10.34375 C 104.695312 -12.132812 103.320312 -15.617188 103.46875 -20.796875 L 106.25 -130.78125 L 89.390625 -130.78125 L 18.625 -21.828125 C 15.3125 -16.796875 11.84375 -13.175781 8.21875 -10.96875 C 4.601562 -8.757812 -0.0664062 -7.65625 -5.796875 -7.65625 C -7.109375 -5.582031 -7.765625 -3.6875 -7.765625 -1.96875 C -7.765625 -0.65625 -7.488281 0 -6.9375 0 L 45.515625 0 C 45.867188 0 46.113281 -0.410156 46.25 -1.234375 C 46.382812 -2.066406 46.453125 -2.691406 46.453125 -3.109375 C 46.453125 -5.867188 46.140625 -7.382812 45.515625 -7.65625 C 41.515625 -7.65625 38.03125 -8.085938 35.0625 -8.953125 C 32.101562 -9.816406 30.625 -11.765625 30.625 -14.796875 C 30.625 -16.585938 31.914062 -19.566406 34.5 -23.734375 C 37.09375 -27.910156 40.457031 -33.070312 44.59375 -39.21875 L 46.65625 -42.21875 Z M 89.59375 -107.296875 L 88.671875 -48.625 L 52.046875 -48.625 Z M 89.59375 -107.296875 "/></g></g></g><g fill="#f4f1e8" fill-opacity="1"><g transform="translate(181.687829, 286.002651)"><g><path d="M 20.375 -130.78125 C 18.925781 -129.125 18.203125 -127.222656 18.203125 -125.078125 C 18.203125 -124.179688 18.648438 -123.59375 19.546875 -123.3125 C 20.453125 -123.039062 21.90625 -122.804688 23.90625 -122.609375 C 26.3125 -122.398438 28.304688 -122.085938 29.890625 -121.671875 C 31.484375 -121.253906 32.863281 -120.375 34.03125 -119.03125 C 35.207031 -117.6875 35.796875 -115.738281 35.796875 -113.1875 C 35.796875 -109.738281 34.519531 -101.941406 31.96875 -89.796875 C 29.414062 -77.660156 26.519531 -64.796875 23.28125 -51.203125 C 20.039062 -37.617188 17.625 -27.894531 16.03125 -22.03125 C 15 -18.238281 13.640625 -15.289062 11.953125 -13.1875 C 10.265625 -11.082031 8.125 -9.613281 5.53125 -8.78125 C 2.945312 -7.957031 -0.34375 -7.546875 -4.34375 -7.546875 L -6.203125 -1.859375 L -5.484375 0 L 65.703125 0 C 78.597656 0 90.320312 -3.878906 100.875 -11.640625 C 111.425781 -19.398438 119.703125 -29.382812 125.703125 -41.59375 C 131.703125 -53.800781 134.703125 -66.21875 134.703125 -78.84375 C 134.703125 -88.976562 132.113281 -97.992188 126.9375 -105.890625 C 121.769531 -113.785156 114.875 -119.90625 106.25 -124.25 C 97.632812 -128.601562 88.289062 -130.78125 78.21875 -130.78125 Z M 53.703125 -113.5 C 54.660156 -117.21875 56.414062 -119.75 58.96875 -121.09375 C 61.519531 -122.445312 65.242188 -123.125 70.140625 -123.125 L 79.15625 -123.125 C 86.601562 -123.125 92.976562 -121.519531 98.28125 -118.3125 C 103.59375 -115.101562 107.59375 -110.738281 110.28125 -105.21875 C 112.976562 -99.695312 114.328125 -93.457031 114.328125 -86.5 C 114.328125 -76.632812 112.304688 -65.597656 108.265625 -53.390625 C 104.234375 -41.179688 98.390625 -30.75 90.734375 -22.09375 C 83.078125 -13.4375 74.113281 -9.109375 63.84375 -9.109375 L 31.34375 -9.109375 Z M 53.703125 -113.5 "/></g></g></g></svg>