<svg xmlns="http://www.w3.org/2000/svg" xmlns:xlink="http://www.w3.org/1999/xlink" width="71" zoomAndPan="magnify" viewBox="0 0 53.25 58.499999" height="78" preserveAspectRatio="xMidYMid meet" version="1.0"><defs><g/><clipPath id="60a90fb64e"><path d="M 0 2.953125 L 52.433594 2.953125 L 52.433594 55.386719 L 0 55.386719 Z M 0 2.953125 " clip-rule="nonzero"/></clipPath></defs><g clip-path="url(#60a90fb64e)"><path fill="#9b4819" d="M 26.167969 2.953125 C 11.734375 2.953125 0 14.699219 0 29.121094 C 0 43.554688 11.734375 55.289062 26.167969 55.289062 C 40.59375 55.289062 52.335938 43.554688 52.335938 29.121094 C 52.335938 14.699219 40.59375 2.953125 26.167969 2.953125 Z M 26.167969 53.25 C 12.863281 53.25 2.042969 42.425781 2.042969 29.121094 C 2.042969 15.816406 12.863281 4.996094 26.167969 4.996094 C 39.472656 4.996094 50.296875 15.816406 50.296875 29.121094 C 50.296875 42.425781 39.472656 53.25 26.167969 53.25 Z M 26.167969 53.25 " fill-opacity="1" fill-rule="nonzero"/></g><path fill="#9b4819" d="M 26.167969 6.355469 C 13.617188 6.355469 3.402344 16.570312 3.402344 29.121094 C 3.402344 41.671875 13.617188 51.886719 26.167969 51.886719 C 38.71875 51.886719 48.933594 41.671875 48.933594 29.121094 C 48.933594 16.570312 38.71875 6.355469 26.167969 6.355469 Z M 26.167969 6.355469 " fill-opacity="1" fill-rule="nonzero"/><g fill="#f4f1e8" fill-opacity="1"><g transform="translate(12.179822, 34.458672)"><g><path d="M 12.328125 -5.890625 C 12.316406 -5.617188 12.3125 -5.222656 12.3125 -4.703125 C 12.300781 -3.859375 12.25 -3.195312 12.15625 -2.71875 C 12.070312 -2.25 11.847656 -1.851562 11.484375 -1.53125 C 11.128906 -1.21875 10.566406 -1.0625 9.796875 -1.0625 C 9.617188 -0.757812 9.53125 -0.5 9.53125 -0.28125 C 9.53125 -0.09375 9.566406 0 9.640625 0 L 16.828125 0 C 16.878906 0 16.914062 -0.0507812 16.9375 -0.15625 C 16.957031 -0.257812 16.96875 -0.351562 16.96875 -0.4375 C 16.96875 -0.820312 16.921875 -1.03125 16.828125 -1.0625 C 16.023438 -1.0625 15.421875 -1.1875 15.015625 -1.4375 C 14.609375 -1.6875 14.414062 -2.175781 14.4375 -2.90625 L 14.828125 -18.25 L 12.484375 -18.25 L 2.59375 -3.046875 C 2.132812 -2.347656 1.648438 -1.84375 1.140625 -1.53125 C 0.640625 -1.21875 -0.0078125 -1.0625 -0.8125 -1.0625 C -0.988281 -0.78125 -1.078125 -0.519531 -1.078125 -0.28125 C -1.078125 -0.09375 -1.039062 0 -0.96875 0 L 6.359375 0 C 6.398438 0 6.429688 -0.0546875 6.453125 -0.171875 C 6.472656 -0.285156 6.484375 -0.375 6.484375 -0.4375 C 6.484375 -0.820312 6.441406 -1.03125 6.359375 -1.0625 C 5.796875 -1.0625 5.304688 -1.125 4.890625 -1.25 C 4.484375 -1.375 4.28125 -1.644531 4.28125 -2.0625 C 4.28125 -2.3125 4.457031 -2.726562 4.8125 -3.3125 C 5.175781 -3.894531 5.644531 -4.613281 6.21875 -5.46875 L 6.515625 -5.890625 Z M 12.5 -14.984375 L 12.375 -6.78125 L 7.265625 -6.78125 Z M 12.5 -14.984375 "/></g></g></g><g fill="#f4f1e8" fill-opacity="1"><g transform="translate(25.358731, 42.871943)"><g><path d="M 2.84375 -18.25 C 2.644531 -18.019531 2.546875 -17.753906 2.546875 -17.453125 C 2.546875 -17.328125 2.609375 -17.242188 2.734375 -17.203125 C 2.859375 -17.171875 3.0625 -17.140625 3.34375 -17.109375 C 3.675781 -17.085938 3.953125 -17.046875 4.171875 -16.984375 C 4.390625 -16.921875 4.582031 -16.796875 4.75 -16.609375 C 4.914062 -16.421875 5 -16.148438 5 -15.796875 C 5 -15.316406 4.816406 -14.226562 4.453125 -12.53125 C 4.097656 -10.84375 3.695312 -9.046875 3.25 -7.140625 C 2.800781 -5.242188 2.460938 -3.890625 2.234375 -3.078125 C 2.085938 -2.546875 1.894531 -2.132812 1.65625 -1.84375 C 1.425781 -1.550781 1.128906 -1.34375 0.765625 -1.21875 C 0.410156 -1.101562 -0.046875 -1.046875 -0.609375 -1.046875 L -0.859375 -0.265625 L -0.765625 0 L 9.171875 0 C 10.972656 0 12.609375 -0.539062 14.078125 -1.625 C 15.554688 -2.707031 16.710938 -4.097656 17.546875 -5.796875 C 18.378906 -7.503906 18.796875 -9.238281 18.796875 -11 C 18.796875 -12.414062 18.4375 -13.675781 17.71875 -14.78125 C 17 -15.882812 16.035156 -16.738281 14.828125 -17.34375 C 13.628906 -17.945312 12.328125 -18.25 10.921875 -18.25 Z M 7.5 -15.84375 C 7.632812 -16.363281 7.878906 -16.71875 8.234375 -16.90625 C 8.585938 -17.09375 9.109375 -17.1875 9.796875 -17.1875 L 11.046875 -17.1875 C 12.085938 -17.1875 12.976562 -16.960938 13.71875 -16.515625 C 14.457031 -16.066406 15.015625 -15.457031 15.390625 -14.6875 C 15.765625 -13.914062 15.953125 -13.046875 15.953125 -12.078125 C 15.953125 -10.703125 15.671875 -9.160156 15.109375 -7.453125 C 14.546875 -5.742188 13.726562 -4.285156 12.65625 -3.078125 C 11.59375 -1.867188 10.34375 -1.265625 8.90625 -1.265625 L 4.375 -1.265625 Z M 7.5 -15.84375 "/></g></g></g></svg>