<svg xmlns="http://www.w3.org/2000/svg" xmlns:xlink="http://www.w3.org/1999/xlink" width="500" zoomAndPan="magnify" viewBox="0 0 375 374.999991" height="500" preserveAspectRatio="xMidYMid meet" version="1.0"><defs><clipPath id="17bb6448ee"><path d="M 8.828125 8.828125 L 365.828125 8.828125 L 365.828125 365.828125 L 8.828125 365.828125 Z M 8.828125 8.828125 " clip-rule="nonzero"/></clipPath><clipPath id="e0ba6ef2c8"><path d="M 99.832031 102.382812 L 275.332031 102.382812 L 275.332031 272.632812 L 99.832031 272.632812 Z M 99.832031 102.382812 " clip-rule="nonzero"/></clipPath></defs><g clip-path="url(#17bb6448ee)"><path fill="#9b4819" d="M 187.496094 8.828125 C 88.941406 8.828125 8.828125 89.015625 8.828125 187.496094 C 8.828125 286.050781 88.941406 366.167969 187.496094 366.167969 C 285.980469 366.167969 366.167969 286.050781 366.167969 187.496094 C 366.167969 89.015625 285.980469 8.828125 187.496094 8.828125 Z M 187.496094 352.230469 C 96.660156 352.230469 22.761719 278.332031 22.761719 187.496094 C 22.761719 96.660156 96.660156 22.761719 187.496094 22.761719 C 278.332031 22.761719 352.230469 96.660156 352.230469 187.496094 C 352.230469 278.332031 278.332031 352.230469 187.496094 352.230469 Z M 187.496094 352.230469 " fill-opacity="1" fill-rule="nonzero"/></g><path fill="#9b4819" d="M 187.496094 32.054688 C 101.808594 32.054688 32.054688 101.808594 32.054688 187.496094 C 32.054688 273.1875 101.808594 342.941406 187.496094 342.941406 C 273.1875 342.941406 342.941406 273.1875 342.941406 187.496094 C 342.941406 101.808594 273.1875 32.054688 187.496094 32.054688 Z M 187.496094 32.054688 " fill-opacity="1" fill-rule="nonzero"/><g clip-path="url(#e0ba6ef2c8)"><path fill="#f4f1e8" d="M 160.449219 175.9375 C 160.449219 177.660156 159.054688 179.054688 157.332031 179.054688 L 144.476562 179.054688 C 142.753906 179.054688 141.359375 177.660156 141.359375 175.9375 L 141.359375 172.121094 C 141.359375 170.617188 142.578125 169.398438 144.082031 169.398438 L 157.714844 169.398438 C 159.21875 169.398438 160.4375 170.617188 160.4375 172.121094 L 160.4375 175.9375 Z M 153.40625 245.238281 C 154.730469 245.238281 155.808594 244.160156 155.808594 242.839844 L 155.808594 184.980469 C 155.808594 183.65625 154.730469 182.578125 153.40625 182.578125 L 148.398438 182.578125 C 147.074219 182.578125 145.996094 183.65625 145.996094 184.980469 L 145.996094 242.832031 C 145.996094 244.15625 147.074219 245.234375 148.398438 245.234375 L 153.40625 245.234375 Z M 141.363281 255.695312 C 141.363281 257.195312 142.582031 258.414062 144.085938 258.414062 L 157.722656 258.414062 C 159.222656 258.414062 160.441406 257.195312 160.441406 255.695312 L 160.441406 251.96875 C 160.441406 250.195312 159.003906 248.757812 157.234375 248.757812 L 144.5625 248.757812 C 142.792969 248.757812 141.355469 250.195312 141.355469 251.96875 L 141.355469 255.695312 Z M 197.039062 172.121094 C 197.039062 170.617188 195.820312 169.398438 194.316406 169.398438 L 180.679688 169.398438 C 179.175781 169.398438 177.957031 170.617188 177.957031 172.121094 L 177.957031 175.9375 C 177.957031 177.660156 179.351562 179.054688 181.074219 179.054688 L 193.929688 179.054688 C 195.652344 179.054688 197.046875 177.660156 197.046875 175.9375 L 197.046875 172.121094 Z M 190 245.238281 C 191.320312 245.238281 192.398438 244.160156 192.398438 242.839844 L 192.398438 184.980469 C 192.398438 183.65625 191.320312 182.578125 190 182.578125 L 184.988281 182.578125 C 183.664062 182.578125 182.585938 183.65625 182.585938 184.980469 L 182.585938 242.832031 C 182.585938 244.15625 183.664062 245.234375 184.988281 245.234375 L 190 245.234375 Z M 177.953125 255.695312 C 177.953125 257.195312 179.171875 258.414062 180.675781 258.414062 L 194.3125 258.414062 C 195.816406 258.414062 197.03125 257.195312 197.03125 255.695312 L 197.03125 251.96875 C 197.03125 250.195312 195.59375 248.757812 193.824219 248.757812 L 181.152344 248.757812 C 179.382812 248.757812 177.945312 250.195312 177.945312 251.96875 L 177.945312 255.695312 Z M 233.628906 172.121094 C 233.628906 170.617188 232.410156 169.398438 230.90625 169.398438 L 217.269531 169.398438 C 215.765625 169.398438 214.546875 170.617188 214.546875 172.121094 L 214.546875 175.9375 C 214.546875 177.660156 215.941406 179.054688 217.664062 179.054688 L 230.519531 179.054688 C 232.242188 179.054688 233.636719 177.660156 233.636719 175.9375 L 233.636719 172.121094 Z M 226.59375 245.238281 C 227.917969 245.238281 228.996094 244.160156 228.996094 242.839844 L 228.996094 184.980469 C 228.996094 183.65625 227.917969 182.578125 226.59375 182.578125 L 221.582031 182.578125 C 220.257812 182.578125 219.179688 183.65625 219.179688 184.980469 L 219.179688 242.832031 C 219.179688 244.15625 220.257812 245.234375 221.582031 245.234375 L 226.59375 245.234375 Z M 214.542969 255.695312 C 214.542969 257.195312 215.761719 258.414062 217.265625 258.414062 L 230.902344 258.414062 C 232.40625 258.414062 233.625 257.195312 233.625 255.695312 L 233.625 251.96875 C 233.625 250.195312 232.183594 248.757812 230.414062 248.757812 L 217.742188 248.757812 C 215.972656 248.757812 214.535156 250.195312 214.535156 251.96875 L 214.535156 255.695312 Z M 267.621094 172.121094 C 267.621094 170.617188 266.40625 169.398438 264.902344 169.398438 L 251.265625 169.398438 C 249.761719 169.398438 248.542969 170.617188 248.542969 172.121094 L 248.542969 175.9375 C 248.542969 177.660156 249.9375 179.054688 251.660156 179.054688 L 264.511719 179.054688 C 266.234375 179.054688 267.628906 177.660156 267.628906 175.9375 L 267.628906 172.121094 Z M 260.582031 245.238281 C 261.90625 245.238281 262.984375 244.160156 262.984375 242.839844 L 262.984375 184.980469 C 262.984375 183.65625 261.90625 182.578125 260.582031 182.578125 L 255.574219 182.578125 C 254.25 182.578125 253.171875 183.65625 253.171875 184.980469 L 253.171875 242.832031 C 253.171875 244.15625 254.25 245.234375 255.574219 245.234375 L 260.582031 245.234375 Z M 248.539062 255.695312 C 248.539062 257.195312 249.757812 258.414062 251.261719 258.414062 L 264.898438 258.414062 C 266.398438 258.414062 267.617188 257.195312 267.617188 255.695312 L 267.617188 251.96875 C 267.617188 250.195312 266.179688 248.757812 264.410156 248.757812 L 251.738281 248.757812 C 249.96875 248.757812 248.53125 250.195312 248.53125 251.96875 L 248.53125 255.695312 Z M 180.023438 110.738281 C 180.570312 111.15625 181.265625 111.285156 181.929688 111.09375 L 186.890625 109.683594 C 187.285156 109.574219 187.703125 109.574219 188.097656 109.683594 L 194.375 111.472656 C 194.574219 111.527344 194.78125 111.554688 194.976562 111.554688 C 195.441406 111.554688 195.898438 111.40625 196.285156 111.113281 C 196.832031 110.695312 197.148438 110.066406 197.148438 109.375 L 197.148438 104.703125 C 197.148438 103.503906 196.167969 102.53125 194.972656 102.53125 L 181.335938 102.53125 C 180.136719 102.53125 179.164062 103.507812 179.164062 104.703125 L 179.164062 109.003906 C 179.160156 109.691406 179.472656 110.324219 180.023438 110.738281 Z M 272.953125 138.847656 L 188.328125 114.769531 C 187.785156 114.613281 187.210938 114.613281 186.667969 114.769531 L 102.039062 138.847656 C 100.742188 139.222656 99.832031 140.421875 99.832031 141.773438 L 99.832031 146.335938 C 99.832031 147.296875 100.273438 148.179688 101.039062 148.757812 C 101.804688 149.335938 102.773438 149.515625 103.699219 149.253906 L 186.894531 125.582031 C 187.289062 125.46875 187.707031 125.46875 188.101562 125.582031 L 271.296875 149.253906 C 271.570312 149.332031 271.855469 149.371094 272.132812 149.371094 C 272.78125 149.371094 273.417969 149.164062 273.953125 148.757812 C 274.71875 148.179688 275.15625 147.296875 275.15625 146.335938 L 275.15625 141.773438 C 275.15625 140.421875 274.25 139.222656 272.953125 138.847656 Z M 139.792969 143.554688 L 127.171875 147.148438 C 126.21875 147.421875 125.652344 148.292969 125.789062 149.273438 C 125.925781 150.25 126.710938 150.933594 127.699219 150.933594 L 247.292969 150.933594 C 248.28125 150.933594 249.070312 150.25 249.207031 149.273438 C 249.339844 148.292969 248.769531 147.421875 247.824219 147.148438 L 235.199219 143.5625 C 235.03125 143.511719 234.851562 143.484375 234.675781 143.484375 L 140.320312 143.484375 C 140.140625 143.480469 139.964844 143.507812 139.792969 143.554688 Z M 105.089844 157.882812 L 105.089844 162.441406 C 105.089844 163.851562 106.234375 164.988281 107.636719 164.988281 L 267.355469 164.988281 C 268.761719 164.988281 269.902344 163.84375 269.902344 162.441406 L 269.902344 157.882812 C 269.902344 156.476562 268.757812 155.339844 267.355469 155.339844 L 107.636719 155.339844 C 106.234375 155.339844 105.089844 156.480469 105.089844 157.882812 Z M 164.773438 139.078125 L 210.21875 139.078125 C 210.867188 139.078125 211.40625 138.609375 211.492188 137.96875 C 211.585938 137.324219 211.195312 136.726562 210.566406 136.546875 L 187.847656 130.082031 C 187.613281 130.015625 187.371094 130.015625 187.140625 130.082031 L 164.417969 136.546875 C 163.792969 136.726562 163.40625 137.324219 163.492188 137.96875 C 163.582031 138.613281 164.125 139.078125 164.773438 139.078125 Z M 126.453125 172.121094 C 126.453125 170.617188 125.234375 169.398438 123.730469 169.398438 L 110.089844 169.398438 C 108.585938 169.398438 107.367188 170.617188 107.367188 172.121094 L 107.367188 175.9375 C 107.367188 177.660156 108.761719 179.054688 110.484375 179.054688 L 123.339844 179.054688 C 125.0625 179.054688 126.457031 177.660156 126.457031 175.9375 L 126.457031 172.121094 Z M 119.414062 245.238281 C 120.738281 245.238281 121.816406 244.160156 121.816406 242.839844 L 121.816406 184.980469 C 121.816406 183.65625 120.738281 182.578125 119.414062 182.578125 L 114.402344 182.578125 C 113.078125 182.578125 112 183.65625 112 184.980469 L 112 242.832031 C 112 244.15625 113.078125 245.234375 114.402344 245.234375 L 119.414062 245.234375 Z M 107.367188 255.695312 C 107.367188 257.195312 108.585938 258.414062 110.089844 258.414062 L 123.726562 258.414062 C 125.230469 258.414062 126.449219 257.195312 126.449219 255.695312 L 126.449219 251.96875 C 126.449219 250.195312 125.011719 248.757812 123.238281 248.757812 L 110.570312 248.757812 C 108.800781 248.757812 107.363281 250.195312 107.363281 251.96875 L 107.363281 255.695312 Z M 272.125 262.824219 L 102.867188 262.824219 C 101.191406 262.824219 99.832031 264.183594 99.832031 265.859375 L 99.832031 269.449219 C 99.832031 271.121094 101.191406 272.480469 102.867188 272.480469 L 272.125 272.480469 C 273.796875 272.480469 275.15625 271.121094 275.15625 269.449219 L 275.15625 265.859375 C 275.15625 264.183594 273.796875 262.824219 272.125 262.824219 Z M 272.125 262.824219 " fill-opacity="1" fill-rule="nonzero"/></g></svg>